<?xml version="1.0" encoding="utf-8"?>
<!-- Generator: Adobe Illustrator 21.1.0, SVG Export Plug-In . SVG Version: 6.00 Build 0)  -->
<svg version="1.1" id="Layer_1" xmlns="http://www.w3.org/2000/svg" xmlns:xlink="http://www.w3.org/1999/xlink" x="0px" y="0px"
	 viewBox="0 0 132 132" style="enable-background:new 0 0 132 132;" xml:space="preserve">
<path d="M96,0H80c0,28.7,23.3,52,52,52V36C112.1,36,96,19.9,96,0z"/>
<path d="M52,0H36c0.1,53,43,95.9,96,96V80C87.8,80,52,44.2,52,0z"/>
<path d="M0,36v16c28.7,0,52-23.3,52-52H36C36,19.9,19.9,36,0,36z"/>
<path d="M0,80v16c53-0.1,95.9-43,96-96H80C80,44.2,44.2,80,0,80z"/>
</svg>
