<?xml version="1.0" encoding="utf-8"?>
<!-- Generator: Adobe Illustrator 21.1.0, SVG Export Plug-In . SVG Version: 6.00 Build 0)  -->
<svg version="1.1" id="Layer_1" xmlns="http://www.w3.org/2000/svg" xmlns:xlink="http://www.w3.org/1999/xlink" x="0px" y="0px"
	 viewBox="0 0 132 132" style="enable-background:new 0 0 132 132;" xml:space="preserve">
<path d="M3.9,80c-1.3,0-2.6,0.1-3.9,0.2v16.1C1.3,96.1,2.6,96,3.9,96c19.3,0,34.9,16.1,34.9,36h15.5C54.3,103.3,31.7,80,3.9,80z"/>
<path d="M3.9,36c-1.3,0-2.6,0-3.9,0.1v16C1.3,52,2.6,52,3.9,52c42.8,0,77.7,35.9,77.7,80h15.5C97.1,79.1,55.3,36,3.9,36z"/>
<path d="M132,96V80c-27.8,0-50.5,23.3-50.5,52h15.5C97.1,112.2,112.7,96,132,96z"/>
<path d="M38.8,132h15.5c0-44.1,34.8-80,77.7-80V36C80.6,36,38.8,79.1,38.8,132z"/>
</svg>
