<?xml version="1.0" encoding="iso-8859-1"?>
<!-- Generator: Adobe Illustrator 21.1.0, SVG Export Plug-In . SVG Version: 6.00 Build 0)  -->
<svg version="1.1" xmlns="http://www.w3.org/2000/svg" xmlns:xlink="http://www.w3.org/1999/xlink" x="0px" y="0px"
	 viewBox="0 0 100 100" style="enable-background:new 0 0 100 100;" xml:space="preserve">
<g id="T_x5F_00">
	<g>
		<polygon points="30.5,99.5 30.5,69.5 0.5,69.5 0.5,30.5 31.207,30.5 50,11.707 68.793,30.5 99.5,30.5 99.5,69.5 69.5,69.5 
			69.5,99.5 		"/>
		<path d="M50,12.414l18.293,18.293L68.586,31H69h30v38H70h-1v1v29H31V70v-1h-1H1V31h30h0.414l0.293-0.293L50,12.414 M50,11L31,30H0
			v40h30v30h40V70h30V30H69L50,11L50,11z"/>
	</g>
</g>
<g id="Layer_1">
</g>
</svg>
