<?xml version="1.0" encoding="iso-8859-1"?>
<!-- Generator: Adobe Illustrator 21.1.0, SVG Export Plug-In . SVG Version: 6.00 Build 0)  -->
<svg version="1.1" xmlns="http://www.w3.org/2000/svg" xmlns:xlink="http://www.w3.org/1999/xlink" x="0px" y="0px"
	 viewBox="0 0 100 100" style="enable-background:new 0 0 100 100;" xml:space="preserve">
<g id="T_x5F_01">
	<g>
		<path d="M30.5,99.5v-30h-30v-39h30.707L50,11.707L68.793,30.5H99.5v39h-30v30H30.5z M34.293,50L50,65.707L65.707,50L50,34.293
			L34.293,50z"/>
		<path d="M50,12.414l18.293,18.293L68.586,31H69h30v38H70h-1v1v29H31V70v-1h-1H1V31h30h0.414l0.293-0.293L50,12.414 M50,66.414
			l0.707-0.707l15-15L66.414,50l-0.707-0.707l-15-15L50,33.586l-0.707,0.707l-15,15L33.586,50l0.707,0.707l15,15L50,66.414 M50,11
			L31,30H0v40h30v30h40V70h30V30H69L50,11L50,11z M50,65L35,50l15-15l15,15L50,65L50,65z"/>
	</g>
</g>
<g id="Layer_1">
</g>
</svg>
