<?xml version="1.0" encoding="utf-8"?>
<!-- Generator: Adobe Illustrator 21.1.0, SVG Export Plug-In . SVG Version: 6.00 Build 0)  -->
<svg version="1.0" id="Grass_1_" xmlns="http://www.w3.org/2000/svg" xmlns:xlink="http://www.w3.org/1999/xlink" x="0px" y="0px"
	 viewBox="0 0 100 100" enable-background="new 0 0 100 100" xml:space="preserve">
<path fill="#FFFFFF" stroke="#000000" stroke-miterlimit="10" d="M13.5,87.4c-3.7,0-12.2-6.3-13.4-22.1S13.5,1.1,13.5,1.1
	s-3.7,57.9,0,66.3s11-36.8,11-36.8S29.3,12.6,33,8.4c0,0-12.2,51.6-3.7,50.5s17.1-28.4,17.1-28.4l2.4,30.5L57.3,0
	c0,0,2.4,49.5,8.5,51.6c6.1,2.1,7.3-13.7,7.3-13.7s0,25.3,6.1,25.3s14.6-34.7,14.6-34.7s6.1,32.6,6.1,44.2s-8.5,20-8.5,20
	S79.3,74.7,75.6,74.7c-3.7,0-4.9,14.7-4.9,14.7s-2.4-22.1-7.3-22.1S51.3,92.6,51.3,92.6s0-13.7-6.1-16.8c-6.1-3.2-4.9,24.2-4.9,24.2
	s-11-16.8-13.4-23.2C24.4,70.5,22,89.5,22,95.8S17.1,87.4,13.5,87.4z"/>
</svg>
