<?xml version="1.0" encoding="utf-8"?>
<!-- Generator: Adobe Illustrator 21.1.0, SVG Export Plug-In . SVG Version: 6.00 Build 0)  -->
<svg version="1.0" id="grass-01" xmlns="http://www.w3.org/2000/svg" xmlns:xlink="http://www.w3.org/1999/xlink" x="0px" y="0px"
	 viewBox="0 0 100 100" enable-background="new 0 0 100 100" xml:space="preserve">
<path fill="#FFFFFF" stroke="#000000" stroke-miterlimit="10" d="M10.5,86.5l-3-13l4-35l3,35c0,0,8,8,12,4s4-62,4-62s2.6,34.7,8,50
	c3.9,11.2,6,4.8,7-1c5-28,10-47,10-47l4-15c0,0-5,27-5,37s-2,24,2,28s7-1,7-1l7-24l6-29v54l2,11l5-18l5-32l4,35l-7,30l-7,1l-4-12
	l-8,12l1-13l-14,10l-9,3l5-13l-17,12l-2-9l-8,6L10.5,86.5z"/>
</svg>
